<?xml version="1.0" encoding="UTF-8"?>
<svg id="Capa_1" data-name="Capa 1" xmlns="http://www.w3.org/2000/svg" version="1.1" viewBox="0 0 1200 1028">
  <defs>
    <style>
      .cls-1 {
        fill: #754f28;
      }

      .cls-1, .cls-2 {
        stroke-width: 0px;
      }

      .cls-2 {
        fill: #ff8033;
      }
    </style>
  </defs>
  <path class="cls-2" d="M946.4,391.8c0,75,.3,149.9-.1,224.9-.3,45.6-20.8,78.7-63.7,96.7-48.5,20.4-97,40.8-145.6,61-19,7.9-34.2,5.7-43.5-5.4-15-17.8-8.6-41,15.1-51.5,35.7-15.9,71.6-31.2,107.5-46.9,14.9-6.5,29.8-13.2,44.6-19.8,15.5-6.9,23-18.5,22.9-35.8-.2-141.8,0-283.6-.2-425.3,0-21-12.3-28.3-32.8-19.3-62.7,27.3-124.3,57.2-188.2,81.4-38.1,14.5-49.1,36.5-48.5,75.9,2.3,139.6-.5,279.2,1.6,418.8.8,50.4-46.2,87.7-96.4,65.2-74.7-33.5-151.1-63.3-226.7-95-52-21.8-70.8-50.5-70.7-106.7,0-149.4,0-298.8,0-448.1,0-47.6,45.4-79.1,89.3-61.3,47.3,19.2,94.2,39.2,141.2,58.9,3.5,1.5,6.9,3.1,10.3,4.9,16.5,8.8,23.8,25.8,17.6,40.6-7.3,17.4-25.9,25.1-45,17.3-23.1-9.5-45.7-20.1-68.5-30.1-16.9-7.4-33.7-14.9-50.8-22.1-20.3-8.5-31.4-1.1-31.4,21.1,0,141.2.1,282.5-.2,423.7,0,18.3,7.8,29.6,23.9,36.7,70.6,30.8,141.1,62,211.8,92.5,21.9,9.4,32.8,1.4,32.8-22.9,0-141.8,0-283.6.1-425.3,0-44.8,20.9-76.9,62.1-94.3,78.9-33.5,158.1-66.4,237.4-98.9,40.5-16.6,77.4-.5,90.5,38.8,2.5,7.5,3.2,16,3.2,24,.2,75.5.1,151,.1,226.5h0Z"/>
  <path class="cls-2" d="M89.6,501.9c0-71.2,0-142.3,0-213.5,0-5.4-.3-10.9.4-16.3,2.2-16.3,15.4-27.6,31.3-27.3,15.3.3,28.6,12.9,30,28.9.5,5.4.2,10.9.2,16.3,0,138,.4,275.9-.4,413.9-.2,25.2,8.4,40.1,32,49.9,108.7,45.2,216.6,92.3,325.4,137.2,50.2,20.8,102,20.4,152.4-.7,110.1-46.1,219.8-93.1,329.8-139.5,17.5-7.4,25.7-19.2,25.6-38.8-.5-98.3-.3-196.6,0-294.9,0-8.3,1.9-17.3,5.3-24.8,6-12.9,17.9-17.4,31.4-14.5,13.2,2.8,22.1,11.4,24.5,25.2,1,5.8.7,11.9.7,17.9,0,89.1-.5,178.2.3,267.2.2,25.6,1,50.6-10,74.7-11,24.1-29.6,40.7-53.1,50.3-114.9,47-229.9,93.9-345.6,139.1-61.3,24-123,20.8-184.2-4.5-111.3-46-223.2-90.7-334.6-136.4-40.3-16.5-61.1-47.6-61.4-91.1-.5-72.8-.1-145.6-.1-218.3h0Z"/>
  <path class="cls-1" d="M1078,274.2c.3,16.3-14.5,31.7-30.7,31.9-15.4.2-30.5-14.2-31.2-29.8-.6-16.3,14.3-31.6,30.7-31.5,16.4.1,30.8,13.7,31.1,29.4h0Z"/>
</svg>